# xmcd
#
# Track frame offsets: 
#        150
#        23300
#        34975
#        51100
#        69425
#        81275
#        92375
#        103850
#        117075
#        142800
#        156200
#        169730
#        184625
#        196437
#
# Disc length: 2805 seconds
#
# Revision: 0
# Processed by: cddbd v1.5.2PL0 Copyright (c) Steve Scherf et al.
# Submitted via: ExactAudioCopy v1.3
#
DISCID=ab0af30e
DTITLE=William W. - De zingende cowboy
DYEAR=1900
DGENRE=Country
TTITLE0=Country Medley (Cowboy Jimmy -ik voel me rijk als een koning -
TTITLE0=rosalien uit blokkhut nr 10 - billy the kid)
TTITLE1=On the Road Again
TTITLE2=Dikke Bruine Mery
TTITLE3=Rider in the Rain
TTITLE4=Daarop Mijn Ranch
TTITLE5=Act Naturely
TTITLE6=Blacky
TTITLE7=Spookrijders
TTITLE8=Country Party (ja m'n schat komt van de bergen - 'N cowboy ree
TTITLE8=d over de prairie - hilly billy - Little joe de cowboy - buffa
TTITLE8=lo bill)
TTITLE9=My Best Friend
TTITLE10=Bobby Mc G
TTITLE11=De Herder
TTITLE12=Country Roads
TTITLE13=Goudzoekers van Black Lake
EXTD=
EXTT0=
EXTT1=
EXTT2=
EXTT3=
EXTT4=
EXTT5=
EXTT6=
EXTT7=
EXTT8=
EXTT9=
EXTT10=
EXTT11=
EXTT12=
EXTT13=
PLAYORDER=
